<svg t="1700620601050" class="icon" viewBox="0 0 1024 1024" version="1.1" xmlns="http://www.w3.org/2000/svg" p-id="50048" width="300" height="300"><path d="M472.15591 123.188699c-183.681623 0-331.647126 147.965502-331.647126 331.646126 0 183.681623 147.965502 331.646127 331.647126 331.646127 183.680624 0 331.646127-147.964503 331.646127-331.646127 0-183.680624-147.965502-331.646127-331.646127-331.646126z m0 438.79349c-58.676699 0-104.596855-48.471664-104.596854-104.595855 0-56.12519 48.471664-104.595856 104.596854-104.595856 56.124191 0 104.595856 48.470665 104.595856 104.595856 0 56.124191-45.920156 104.595856-104.595856 104.595855z" fill="#F27B72" p-id="50049"></path><path d="M576.751766 457.384336c0 58.676699-48.471664 104.596855-104.595856 104.596854v227.050271c183.680624 0 331.646127-147.965502 331.646127-331.647125 0-183.680624-147.965502-331.646127-331.646127-331.646127v227.050271c58.6757-2.550509 104.595856 45.920156 104.595856 104.595856z" fill="#E74C3C" p-id="50050"></path><path d="M472.15591 286.457257c-94.39182 0-170.925081 76.53426-170.925081 170.92608 0 94.390821 76.53326 170.925081 170.925081 170.925081 94.39182 0 170.925081-76.53426 170.925081-170.925081 0-94.39182-76.53326-170.92608-170.925081-170.92608z m0 242.357323c-40.818139 0-73.982751-33.164613-73.982751-73.982752 0-40.818139 33.164613-73.982751 73.982751-73.982751 40.818139 0 73.982751 33.164613 73.982751 73.982751 0 40.818139-33.164613 73.982751-73.982751 73.982752z" fill="#FECAC9" p-id="50051"></path><path d="M472.15591 383.400585c40.818139 0 73.982751 33.164613 73.982751 73.982752 0 40.81714-33.164613 73.981752-73.982751 73.981752v96.943329c94.390821 0 170.925081-76.53426 170.925081-170.925081 0-94.39182-76.53426-170.92608-170.925081-170.92608v96.943328z" fill="#F27B72" p-id="50052"></path><path d="M875.23328 449.731809c-5.102018-5.103017-12.755543-5.103017-20.409069-5.103017L594.609327 510.958018c-10.204035 2.551508-17.857561 12.756542-17.857561 22.960577v237.254306c-5.102018-2.550509-10.205034-2.550509-15.307052-2.550509-35.715122 0-63.777717 28.061596-63.777717 63.777717 0 35.716121 28.062595 63.777717 63.777717 63.777717 35.716121 0 63.778716-28.061596 63.778716-63.777717V633.412433l211.74322-53.573682v158.169538c-5.103017-2.550509-10.205034-2.550509-15.307052-2.550509-35.716121 0-63.777717 28.061596-63.777717 63.777717 0 35.716121 28.061596 63.777717 63.777717 63.777717 35.716121 0 63.777717-28.061596 63.777717-63.777717v-331.646127c-2.550509-5.102018-5.102018-12.755543-10.204035-17.857561z" fill="#FBF585" p-id="50053"></path><path d="M875.23328 449.731809c-5.102018-5.103017-12.755543-5.103017-20.409069-5.103017l-130.106943 33.165612v130.106942l112.249382-28.062595v158.169538c-5.103017-2.550509-10.205034-2.550509-15.307052-2.550509-35.716121 0-63.777717 28.061596-63.777717 63.777717 0 35.716121 28.061596 63.777717 63.777717 63.777717 35.716121 0 63.777717-28.061596 63.777717-63.777717v-331.646127c-2.550509-5.102018-5.102018-12.755543-10.204035-17.857561z" fill="#FFCC66" p-id="50054"></path></svg>