<svg t="1706495204326" class="icon" viewBox="0 0 1024 1024" version="1.1" xmlns="http://www.w3.org/2000/svg" p-id="53125" width="64" height="64"><path d="M602.4 684.64a187.36 187.36 0 1 0-240-285.76 193.92 193.92 0 0 0-21.12 24.96 75.2 75.2 0 0 1-57.76 34.08 162.88 162.88 0 0 0-114.08 52.8 167.52 167.52 0 0 0 9.76 229.92l106.4 106.4a167.52 167.52 0 0 0 229.92 9.76 162.72 162.72 0 0 0 52.8-114.08 76.32 76.32 0 0 1 34.08-58.08z" fill="#DFE8F4" p-id="53126"></path><path d="M424.64 601.28m-71.52 0a71.52 71.52 0 1 0 143.04 0 71.52 71.52 0 1 0-143.04 0Z" fill="#156CDD" p-id="53127"></path><path d="M713.92 227.36L688 201.28v-0.8a14.72 14.72 0 1 0-20.64-20.8L656 192a14.72 14.72 0 1 0 20.8 20.64v-0.8l27.2 25.12zM759.52 181.76l-26.08-25.92 0.96-0.96a14.56 14.56 0 0 0-20.64-20.64l-11.52 11.36a14.72 14.72 0 1 0 20.64 20.8l0.96-0.96L749.76 192zM834.56 276.16l25.92 25.92-0.96 0.96A14.72 14.72 0 0 0 880 323.68l11.36-11.52a14.56 14.56 0 0 0-20.64-20.64l-0.96 0.96-25.92-26.08zM788.96 321.76l25.92 25.92v0.8a14.72 14.72 0 0 0 20.64 20.8l11.52-11.52a14.72 14.72 0 0 0-20.8-20.64l-0.8 0.8-26.88-25.92z" fill="#0795FF" p-id="53128"></path><path d="M800 339.2l52.48-67.2a48 48 0 0 0-4.48-64l-31.2-31.2a48 48 0 0 0-62.88-3.84l-67.84 53.12A48 48 0 0 0 669.6 272a26.88 26.88 0 0 1-8.96 24.64l-149.92 136a19.36 19.36 0 0 0 0 28l54.56 54.56a19.36 19.36 0 0 0 28 0l136-149.92a26.88 26.88 0 0 1 24.64-8.96A48 48 0 0 0 800 339.2z" fill="#156CDD" p-id="53129"></path><path d="M378.4 756.32a20.48 20.48 0 0 1-28.96 0l-80-80a20.48 20.48 0 0 1 0-28.96 20.48 20.48 0 0 1 28.96 0l80 80a20.48 20.48 0 0 1 0 28.96z" fill="#0795FF" p-id="53130"></path></svg>