<svg t="1706494830077" class="icon" viewBox="0 0 1024 1024" version="1.1" xmlns="http://www.w3.org/2000/svg" p-id="42624" width="64" height="64"><path d="M473.6 445.354667a76.202667 76.202667 0 1 0 104.106667 27.904 76.202667 76.202667 0 0 0-104.106667-27.904z m341.333333 82.688q-7.509333-8.533333-15.829333-17.066667 5.802667-6.101333 11.264-12.202667c68.522667-76.8 97.450667-154.197333 70.656-200.533333-25.6-44.501333-102.101333-57.770667-197.802667-39.168q-14.122667 2.773333-28.117333 6.229333-2.304-9.301333-5.376-18.56C617.258667 148.906667 564.821333 85.333333 511.232 85.333333c-51.2 0-101.077333 59.733333-132.736 151.765334q-4.693333 13.653333-8.533333 27.52-9.344-2.304-18.773334-4.266667c-100.949333-20.736-182.272-7.082667-209.066666 39.381333-25.6 44.544 1.194667 117.333333 65.237333 190.805334q9.514667 10.922667 19.584 21.333333c-7.893333 8.149333-15.402667 16.298667-22.4 24.405333-62.506667 72.533333-87.765333 144.042667-62.165333 188.373334 26.453333 45.781333 106.666667 60.757333 204.16 41.557333q11.861333-2.346667 23.594666-5.290667 4.266667 15.018667 9.429334 29.866667c31.530667 90.325333 81.066667 148.010667 132.266666 147.968 52.864 0 105.898667-61.994667 138.026667-156.117333 2.517333-7.424 4.949333-15.146667 7.210667-23.125334q15.146667 3.754667 30.506666 6.698667c93.866667 17.792 168.661333 3.797333 194.176-40.576 26.368-45.824-0.810667-122.709333-66.304-197.546667zM173.653333 317.952c16.469333-28.586667 82.901333-39.722667 170.069334-21.845333q8.533333 1.706667 17.066666 3.84a873.088 873.088 0 0 0-17.962666 114.261333A891.136 891.136 0 0 0 253.013333 486.4q-9.344-9.685333-18.218666-19.84C179.882667 403.669333 158.208 344.789333 173.653333 317.952z m165.845334 244.394667c-21.802667-16.512-42.026667-33.28-60.416-50.346667 18.346667-17.066667 38.613333-33.749333 60.373333-50.176q-1.152 25.130667-1.152 50.304t1.194667 50.261333z m0 168.149333a308.778667 308.778667 0 0 1-112.64 3.968 75.349333 75.349333 0 0 1-52.949334-27.989333c-15.530667-26.922667 4.778667-84.394667 58.197334-146.346667q10.069333-11.648 20.821333-22.698667a874.24 874.24 0 0 0 89.898667 72.533334 887.466667 887.466667 0 0 0 18.176 115.712q-10.709333 2.688-21.333334 4.821333z m302.933333-342.997333q-21.333333-13.525333-43.477333-26.197334t-43.818667-23.978666a811.008 811.008 0 0 1 74.197333-27.136 777.258667 777.258667 0 0 1 13.098667 77.312zM412.970667 248.96c27.136-78.976 67.328-127.189333 98.133333-127.189333 32.981333 0 75.861333 51.968 103.850667 136.533333q2.730667 8.277333 5.162666 16.597333a873.728 873.728 0 0 0-107.818666 41.429334 855.978667 855.978667 0 0 0-107.477334-41.898667q3.84-12.842667 8.149334-25.472z m-17.066667 60.757333a781.098667 781.098667 0 0 1 73.813333 27.392q-44.842667 23.125333-87.338666 50.389334c3.370667-27.221333 7.936-53.290667 13.525333-77.781334z m-13.525333 326.869334q21.333333 13.568 43.008 26.154666t45.098666 24.576a776.533333 776.533333 0 0 1-74.410666 28.373334 845.696 845.696 0 0 1-13.696-79.104z m232.789333 134.229333A308.736 308.736 0 0 1 562.346667 870.4a75.349333 75.349333 0 0 1-50.688 31.872c-31.061333 0-70.741333-46.293333-97.706667-123.733333q-4.778667-13.568-8.618667-27.605334a857.941333 857.941333 0 0 0 107.904-43.093333 887.466667 887.466667 0 0 0 108.672 41.770667q-3.029333 10.624-6.613333 21.077333z m15.445333-56.490667a817.493333 817.493333 0 0 1-75.178666-27.562666q21.717333-11.434667 43.733333-24.106667t44.032-26.752a774.528 774.528 0 0 1-12.586667 78.421333zM649.685333 512q0 38.869333-2.432 77.653333c-21.034667 14.208-43.221333 28.117333-66.304 41.429334s-45.781333 25.6-68.266666 36.522666q-35.285333-17.066667-69.205334-36.437333t-65.92-41.344q-2.773333-38.826667-2.816-77.824 0-38.912 2.901334-77.738667a1037.994667 1037.994667 0 0 1 134.741333-77.738666q34.858667 17.066667 68.266667 36.309333t66.090666 40.917333q2.773333 38.997333 2.773334 78.165334z m40.832-217.301333c81.962667-15.957333 143.786667-5.205333 159.274667 21.589333 16.512 28.586667-7.125333 91.648-66.304 158.122667q-4.906667 5.504-10.154667 11.050666a855.936 855.936 0 0 0-91.52-72.064 855.082667 855.082667 0 0 0-17.28-113.024q13.226667-3.242667 25.984-5.76z m-5.546666 165.76a775.04 775.04 0 0 1 62.336 50.688 773.077333 773.077333 0 0 1-62.165334 51.541333q0.981333-25.344 0.981334-50.688t-1.152-51.541333z m165.034666 246.997333c-15.488 26.922667-75.434667 38.144-155.818666 22.954667q-13.824-2.602667-28.373334-6.229334a856.32 856.32 0 0 0 16.512-114.432 850.730667 850.730667 0 0 0 91.178667-73.216q7.509333 7.808 14.336 15.573334a308.650667 308.650667 0 0 1 59.733333 95.488 75.349333 75.349333 0 0 1 2.304 59.733333z" fill="#0070FF" p-id="42625"></path></svg>