<svg t="1706495148523" class="icon" viewBox="0 0 1024 1024" version="1.1" xmlns="http://www.w3.org/2000/svg" p-id="50088" width="64" height="64"><path d="M760.832 265.216c27.136 6.144 51.712 20.48 70.656 40.96 10.752 11.264 19.968 23.552 27.136 36.352 0.512 1.536-48.64 34.816-78.336 52.736-1.024 0.512-5.632-4.096-10.24-11.264-11.264-18.944-31.232-31.232-52.736-31.744-34.304-2.56-56.32 15.872-55.808 45.056-0.512 7.168 1.536 14.848 4.608 21.504 7.68 15.872 21.504 25.088 65.536 44.032 80.896 34.816 115.712 57.856 136.704 90.624 24.576 41.984 29.696 92.16 13.312 137.728a152.6272 152.6272 0 0 1-125.44 89.6c-28.672 3.072-57.344 3.072-86.016-1.024-44.032-7.168-83.968-28.16-115.2-59.904-11.776-13.312-22.016-28.16-29.696-44.032 3.072-2.56 6.656-4.608 10.24-6.656l41.984-24.576 32.768-19.456 6.656 10.24c11.776 16.384 26.112 30.72 43.008 41.472 34.816 19.456 77.312 16.896 110.08-5.632 17.408-16.896 19.968-43.52 6.656-62.976-8.704-12.8-26.624-23.04-77.824-45.056-40.448-13.824-76.288-35.84-106.496-65.024-14.336-16.384-25.088-35.84-31.232-56.32-4.608-24.064-5.12-48.128-2.048-72.192 12.288-56.32 58.368-99.328 116.224-107.52 28.672-3.072 57.344-2.048 85.504 3.072zM495.616 312.32l0.512 46.08H348.672v418.304H244.736V358.912H97.28v-45.056c-0.512-15.872 0-31.232 1.024-46.592 0.512-1.024 90.112-1.024 198.656-1.024h197.632l1.024 46.08z" fill="#3474F0" p-id="50089"></path></svg>